<svg xmlns="http://www.w3.org/2000/svg" viewBox="0 0 150 150">
<!-- SVG created with Arrow, by QuiverAI (https://quiver.ai) -->
  <style type="text/css">.cls-0 {fill:#2C6057;}
.cls-1 {fill:#284E46;}
.cls-2 {fill:#FFFFFF;}
.cls-3 {fill:#010202;}
.cls-4 {fill:#396D64;}</style>
  <path class="cls-0" d="m23.5 30.9v43.1c0.4 6.8 4.8 12 12.4 12h83.1v-55l-95.5-0.1z"/>
  <path class="cls-1" d="m73.7 53.9v-13h-2.6v7.6h-6.1v2.4s3-0.1 6.1-0.1v2.7c0 3.5 1.8 6.4 4.9 6.5h10.1v8.2h2.5v-8.2h10.5v-2.1h-22.7c-2.1 0-2.7-1.8-2.7-4z"/>
  <path class="cls-1" d="m64.3 57.8c-3.7 0-6.4-1.9-6.6-5v-1.6h5.8l0.2-2.4h-5.8v-4.1l-2.8-0.1v3.9l-6.3 0.1 0.2 2.4 6.1 0.1v1.5c-0.1 2.2-2.5 5-6.1 5l-3.3 0.1v2.5c4.2 0.9 8.9-0.4 10.8-3.6 1.4 2.3 4.3 3.5 7.8 3.5v-2.3z"/>
  <path class="cls-1" d="m70.1 66.4c0.6 1.9-0.1 4.8-3.5 5.2s-4.5-2.6-3.6-4.5c0.4-1.1 1.9-1.9 3.4-1.9l6 0.1v-2.5h-6c-2.6 0-5.9 1.9-6 5.2s2.4 5.7 3.9 6.1c1.4 0.5 9.3 1.4 9.3-7.7h-3.5z"/>
  <path class="cls-1" d="m80.5 43.3v10.7h13.7v-7.3h-2.7v5.3h-8.4v-6.3h11.3l-0.1-2.5z"/>
  <path class="cls-2" d="m72.4 52.8v-12.8h-2.6v7.3l-6.1 0.1v2.5h6.1v2.6c-0.1 3.4 1.8 6 4.9 6.2h10.2v8.3h2.7v-7.9h10.3v-2.2l-22.7 0.1c-2.1 0-2.8-2-2.8-4.2zm-9.5 3.8c-3.1-0.1-6.2-1.7-6.2-5v-1.4l5.8-0.2 0.1-2.6-5.8 0.1v-3.8h-3v3.7l-6.2 0.1 0.4 2.4h5.9v1.5c-0.1 2.5-2.8 5.4-6.2 5.4h-3.1v2.5c4.2 0.3 8.3-0.1 10.7-3.9 1.2 2.1 4.2 3.7 7.6 3.6v-2.4zm6 8.8c0.5 2 0.2 5.1-3.8 5.3-2.1 0-3.5-1.8-3.5-3.4 0-2.2 1.6-3.3 3.5-3.3h6.2l-0.3-2.4h-6.2c-1.7 0-5.7 1.7-5.8 5.5-0.1 2.3 2 6 6.1 6.5 5 0 6.9-2.5 6.8-8.1l-3-0.1zm10.5-22.9v10.2l0.7 0.9h13v-7.8h-2.6v5.2h-8.5v-6.3h11.2l-0.1-2.2z"/>
  <path class="cls-3" d="m7.1 116.3h0.8v5.9h3.4l-0.3 0.2h-4.3v-5.8z"/>
  <path class="cls-3" d="m13.2 120.2-0.7 2.1h-1.8l0.6-0.4 2.4-5.6h1l1.7 6.1-0.8 0.1-0.9-2.3h-2.4zm1.3-2.7-0.2-0.7-1.1 3.2h1.7l-0.4-2.5z"/>
  <path class="cls-3" d="m16.8 116.3h1.2l1.3 5.7 1.4-5.5h0.9l1.5 5.5 1.4-5.6h1l-2.1 6.1h-0.7l-1.5-5.6-1.4 5.7h-0.8z"/>
  <path class="cls-3" d="m28.2 122.5v-6.1h4.2l0.1 0.3h-3.4v2.6h2.9v0.3h-3v2.8z"/>
  <path class="cls-3" d="m32.8 116.3h1v6.1h-1z"/>
  <path class="cls-3" d="m38 119.5 2 2.8-1 0.1-1.9-2.9h-1.7v2.9l-0.9-0.1v-6h2.4c1.4 0 2.6 0.4 2.6 1.6 0 1-0.5 1.4-1.5 1.6zm-2-3h-0.6v2.7h1.6c1.1 0 1.6-0.3 1.6-1.2 0-1.1-0.9-1.4-1.8-1.5h-0.8z"/>
  <path class="cls-3" d="m45.9 116.4h1.1l-0.1 6h-1l0.1-5.3-2.2 5.4h-0.8l-2.1-5.2 0.2 5.2h-1l-0.1-6.1h1.2l2.3 5.6z"/>
  <path class="cls-3" d="m54.2 118c-0.2-1.2-0.8-1.4-1.6-1.4-1.4 0-2.2 0.9-2.2 2.4 0 1.7 0.7 3.2 2 3.2 1 0 1.6-0.3 1.8-1.7h1c-0.2 1.2-1.5 2-2.7 1.9-2 0-3.1-0.8-3.1-3.1 0-1.8 0.9-3 3-3 1 0 2.2 0.5 2.7 1.6h-0.9v0.1z"/>
  <path class="cls-3" d="m60.2 119.4h-3.4v2.9h-0.9l-0.1-5.9h1v2.7h3.3v-2.7h1v6.1l-0.9-0.1v-3z"/>
  <path class="cls-3" d="m66.3 116.4h0.9v4.2c0 1.3-1.5 1.8-2.5 1.8-1.6 0-2.6-0.8-2.6-1.8v-4.2h1v4.2c0 0.9 0.9 1.6 1.6 1.6 1 0 1.6-0.3 1.8-1.8v-4z"/>
  <path class="cls-3" d="m68.4 116.4h1.2l3 5.1v-5.1h1v6.1h-0.9l-3.3-5.5v5.4h-0.9z"/>
  <path class="cls-3" d="m76.7 119.3h2.5v1.4c0 1.3-1.8 1.8-2.6 1.8-2 0-2.6-1.3-2.6-3.5 0-1.3 1-2.7 2.6-2.7 1.1 0 2.4 0.4 2.5 1.7h-1c0-1-0.6-1.4-1.4-1.4s-1.6 0.9-1.6 2.5c0 1.5 0.7 3 1.8 3 0.8 0.1 1.5-0.4 1.5-1.1v-1.5h-1.9l0.2-0.2z"/>
  <path class="cls-3" d="m85.9 116.5h1.2l0.1 5.9h-1v-5.3l-2.2 5.4h-0.8l-2.1-5.5 0.2 5.5h-1l-0.1-6.1h1.2l2.3 5.7z"/>
  <path class="cls-3" d="m92.1 116.4h0.8v4.2c0 1.3-1.5 1.9-2.4 1.9-1.6 0-2.5-0.6-2.6-1.9v-4.1h0.8v4c0.1 1 0.9 1.7 1.8 1.7s1.7-0.7 1.7-1.8l-0.1-4z"/>
  <path class="cls-3" d="m7 93.5h1.8v2.4l5-0.1v-2.4h1.8v2.9h3.7v-3.7h1.9v9.5h-1.9v-4.2l-3.8 0.1v3.4h-8.5zm1.9 4v2.4h5l-0.1-2.5zm0.5 5.5h1.9v2.2h7.9v-2.2h2l-0.1 8.1h-11.7zm1.8 4.1v2.2h8v-2.2z"/>
  <path class="cls-3" d="m24.2 101h16.8v1.4h-4.6v1.2h2.5v4.5h-10.8l-0.1 1.4h11.4v1.6h-13.1v-4.4h11v-1.4h-11.3v-1.6h2.8v-1.2h-4.7zm2-8h12.6v4.1l-10.5-0.2-0.1 1.2h10.8v1.4h-12.6l-0.1-3.9h10.4l0.3-1.3h-10.8zm4.1 9.3-0.1 1.3h4.6l0.1-1.2h-4.6z"/>
  <path class="cls-3" d="m46.8 93.6h1.9v4.5l-0.5 2.1 5.3 6.7-1.5 1.4-4.4-5.8c-0.7 2.1-2.2 4-3.9 6l-1.4-1.6c2.4-2 4.6-5.9 4.6-10l-0.1-3.3zm8.4-0.8h2.1v6.5h2.7v1.7h-2.7v10.2h-2z"/>
  <path class="cls-3" d="m61.1 103.9h16.9v1.8l-7.2 0.1v5.2h-1.8v-5.2l-7.9-0.1zm2.1-10.4h12.8v7.7h-12.8zm1.8 1.5v4.5h9.3v-4.5h-9.3z"/>
  <path class="cls-3" d="m79.6 107.7h7.6v-4.7h2v4.7h7.3v1.9h-16.9zm7.8-14.1h1.8v2.4l-0.3 1.4 6.7 4.7-1.3 1.6-6.4-4.8c-1.6 2.2-3.9 3.4-6.4 4.7l-1-1.6c3.2-1.5 6.9-3.3 6.9-8.4z"/>
  <path class="cls-4" d="m102.6 102.6c1.7-0.4 4.6-1.8 4.8-4.5h-4.1v-3.2h4.1v-1.7h3.7v1.7h4.4v2.9h-4.6c0 1.7 3.2 2.7 5.3 4.3l-1.7 3.4-5.3-2.9-4.8 3.4z"/>
  <path class="cls-4" d="m117.5 93.2h3.5v12.2h-3.5v-4.6h-3.1v-3h3.1z"/>
  <path class="cls-4" d="m116.7 106.3h-5.9c-1.9 0-4.9 1-4.9 4.1 0 3.6 2.5 4.9 4.9 4.9h5.8c2 0 4.8-1.1 4.7-4.5 0.1-2.3-1.5-4.4-4.6-4.5zm-0.3 6h-5.4c-0.7 0-1.5-0.6-1.5-1.2 0-0.9 0.8-1.5 1.5-1.5h5.4c0.5 0 1.3 0.4 1.3 1.3 0 0.7-0.5 1.4-1.3 1.4z"/>
  <path class="cls-4" d="m123.6 106.3h20.1l0.1 3.2h-8l-0.1 6h-3.5l0.1-5.9h-8.7z"/>
  <path class="cls-4" d="m125.9 93.9 0.1 10h15.7v-10zm12.1 6.9h-8.2l-0.1-3.9h8.3z"/>
</svg>