<svg xmlns="http://www.w3.org/2000/svg" viewBox="0 0 150 150">
<!-- SVG created with Arrow, by QuiverAI (https://quiver.ai) -->
  <style type="text/css">.cls-0 {fill:#2D665C;}
.cls-1 {opacity:0.7;fill:#244C48;enable-background:new ;}
.cls-2 {fill:#FFFFFF;}</style>
  <path class="cls-0" d="m5.4 8.3v103.7c0 15.9 11.9 30.3 29.7 30.3h109.6v-134h-139.3z"/>
  <path class="cls-1" d="m82.2 74c-2.7-0.4-4.7-2.9-4.7-8.1l-0.1-28.9h-5.2v16.8h-11.7l-0.5 5.6h12.2v6.5c0.1 10.7 7.9 12.1 10 12.1h23.1v16.9h5v-15.9h23.8v-5h-51.9zm-37.8-19.1v-8.9h-5.4v8.8h-13.1v5.1h13.1c0.2 7-3 13.8-13.9 13.8l-6 0.1v4.9h6c5.9 0 13.9-2.2 16.5-7.7 3.3 5.3 10.1 7.7 16.7 7.5v-4.7c-6.8-0.1-14.1-2.8-13.8-13l12.5-0.8v-5.1h-12.6z"/>
  <path class="cls-1" d="m123.5 42.6h-29.9v20.9c0 2.2 1.2 3.5 3.5 3.5h26.5v-15.6h-6.1v10.8h-18.7v-14.4h25.3l-0.6-5.2z"/>
  <path class="cls-1" d="m70.1 91.8c0.8 1 1.1 2.3 1.1 4.2-0.1 3.6-2.9 7-7.5 7s-7.7-2.8-7.8-7 2.9-6.8 7.4-6.8l12.1-0.1-0.1-4.9h-11.6c-5.2 0-11.7 3.2-12.7 10-0.9 7.6 4.5 14.3 12.7 13.9 8.1 0.1 13.1-4.9 13.3-11.8-0.1-1.7-0.5-2.9-1.1-4.2l-5.8-0.3z"/>
  <path class="cls-2" d="m80.7 72.4c-2.7-0.5-4.8-3.2-4.6-8.5v-27.1l-5.2 0.1v16.6l-12.1 0.1v5h12l0.2 7.4c0.2 7.3 4.4 11.4 9.7 11.4h23.1v16.9h5v-16.8h23.5v-5.1h-51.6z"/>
  <path class="cls-2" d="m43.1 53.6v-8.9h-5.6v8.9h-13v5h13c0.2 7-3.1 13.7-14.7 13.8h-5.3l0.1 5.2h5.9c5.9 0 13.3-1.7 16.7-7.6 2.8 4.2 7.5 7.2 16.7 7.4l-0.1-5.2c-8.6-0.1-14.1-4-13.8-12.2l0.1-1.4h12.5v-5h-12.5z"/>
  <path class="cls-2" d="m121 42.1h-28.9v20.5c0 2 1.1 3 2.7 3h26.1v-15.6h-5.1v10.8h-18.5v-14.4h23.6l0.1-4.3z"/>
  <path class="cls-2" d="m68.5 90.6c0.9 1.1 1.1 2.4 1.1 4.3 0 3.6-3 7.2-7.8 7.2-4.5 0-7.5-3-7.7-7.2s3-7.3 7.5-7.3l12-0.1v-4.8l-11.7 0.1c-5.1 0-11.9 3.1-13.1 9.4-1 7.6 4.2 15.1 13.2 14.9 8.1 0.2 12.7-4.8 12.7-11.7-0.1-1.7-0.4-3-1-4.7l-5.2-0.1z"/>
</svg>